<svg width="401" height="75" viewBox="0 0 401 75" fill="none" xmlns="http://www.w3.org/2000/svg">
<mask id="mask0_39_132" style="mask-type:luminance" maskUnits="userSpaceOnUse" x="22" y="6" width="61" height="61">
<path d="M22.6666 6.66669H82.6666V66.6667H22.6666V6.66669Z" fill="white"/>
</mask>
<g mask="url(#mask0_39_132)">
<mask id="mask1_39_132" style="mask-type:luminance" maskUnits="userSpaceOnUse" x="22" y="5" width="63" height="63">
<path d="M22.2135 8.73438L80.6458 5.28125L84.0937 63.7135L25.6666 67.1667L22.2135 8.73438Z" fill="white"/>
</mask>
<g mask="url(#mask1_39_132)">
<mask id="mask2_39_132" style="mask-type:luminance" maskUnits="userSpaceOnUse" x="22" y="5" width="63" height="63">
<path d="M22.2135 8.73438L80.6458 5.28125L84.0937 63.7135L25.6666 67.1667L22.2135 8.73438Z" fill="white"/>
</mask>
<g mask="url(#mask2_39_132)">
<mask id="mask3_39_132" style="mask-type:luminance" maskUnits="userSpaceOnUse" x="22" y="5" width="63" height="63">
<path d="M22.2135 8.73438L80.6458 5.28125L84.0937 63.7135L25.6666 67.1667L22.2135 8.73438Z" fill="white"/>
</mask>
<g mask="url(#mask3_39_132)">
<path d="M82.3698 34.5C82.427 35.4531 82.4375 36.4115 82.3958 37.3698C82.3593 38.3281 82.276 39.2813 82.1458 40.2292C82.0156 41.1823 81.8385 42.1198 81.6145 43.0521C81.3906 43.9844 81.1198 44.9063 80.8073 45.8125C80.4948 46.7136 80.1354 47.6042 79.7343 48.474C79.3333 49.3438 78.8906 50.1927 78.4062 51.0208C77.9218 51.849 77.3958 52.6511 76.8333 53.4219C76.2708 54.1979 75.6718 54.9479 75.0312 55.6615C74.3958 56.3802 73.7239 57.0625 73.0208 57.7136C72.3177 58.3646 71.5833 58.9792 70.8229 59.5573C70.0573 60.1354 69.2656 60.6771 68.4479 61.1771C67.6302 61.6771 66.7916 62.1354 65.927 62.5573C65.0677 62.974 64.1875 63.349 63.2864 63.6823C62.3854 64.0104 61.4739 64.3021 60.5468 64.5417C59.6198 64.7813 58.6823 64.9792 57.7343 65.1302C56.7864 65.2813 55.8385 65.3854 54.8802 65.4375C53.9218 65.4948 52.9687 65.5052 52.0104 65.4688C51.052 65.4323 50.0989 65.3438 49.1458 65.2136C48.1979 65.0834 47.2552 64.9063 46.3229 64.6823C45.3958 64.4583 44.4739 64.1927 43.5677 63.875C42.6614 63.5625 41.776 63.2031 40.9062 62.8021C40.0364 62.4011 39.1875 61.9583 38.3593 61.474C37.5312 60.9896 36.7291 60.4688 35.9531 59.9011C35.177 59.3386 34.4323 58.7396 33.7187 58.1042C33 57.4688 32.3177 56.7969 31.6666 56.0938C31.0156 55.3906 30.401 54.6563 29.8229 53.8906C29.2448 53.125 28.7031 52.3333 28.2031 51.5208C27.7031 50.7031 27.2395 49.8594 26.8229 49C26.4062 48.1354 26.0312 47.2552 25.6979 46.3594C25.3645 45.4584 25.0781 44.5469 24.8385 43.6146C24.5937 42.6875 24.401 41.75 24.25 40.8073C24.0989 39.8594 23.9948 38.9063 23.9375 37.9531C23.8802 36.9948 23.875 36.0365 23.9114 35.0781C23.9479 34.1198 24.0312 33.1667 24.1614 32.2188C24.2968 31.2709 24.4739 30.3281 24.6979 29.3959C24.9218 28.4636 25.1875 27.5469 25.5052 26.6406C25.8177 25.7344 26.1718 24.8438 26.5729 23.974C26.9791 23.1042 27.4218 22.2552 27.9062 21.4271C28.3906 20.6042 28.9114 19.8021 29.4739 19.0261C30.0416 18.25 30.6406 17.5052 31.276 16.7865C31.9114 16.0677 32.5833 15.3854 33.2864 14.7344C33.9895 14.0834 34.7239 13.4688 35.4895 12.8906C36.25 12.3125 37.0416 11.7761 37.8593 11.2709C38.677 10.7709 39.5156 10.3125 40.3802 9.89585C41.2396 9.47398 42.125 9.09898 43.0208 8.77085C43.9218 8.43752 44.8333 8.15106 45.7604 7.90627C46.6875 7.66668 47.625 7.46877 48.5729 7.31773C49.5208 7.17189 50.4739 7.06773 51.427 7.01043C52.3854 6.95314 53.3437 6.94272 54.302 6.97918C55.2604 7.02085 56.2135 7.10418 57.1614 7.23439C58.1093 7.3646 59.052 7.54168 59.9843 7.76564C60.9166 7.9896 61.8333 8.26043 62.7395 8.57293C63.6458 8.88543 64.5312 9.24481 65.4062 9.64585C66.276 10.0469 67.125 10.4896 67.9479 10.974C68.776 11.4583 69.5781 11.9844 70.3541 12.5469C71.1302 13.1094 71.875 13.7084 72.5937 14.3438C73.3073 14.9844 73.9948 15.6511 74.6406 16.3542C75.2916 17.0625 75.9062 17.7969 76.4895 18.5573C77.0677 19.3229 77.6041 20.1146 78.1041 20.9323C78.6093 21.75 79.0677 22.5886 79.4843 23.4479C79.901 24.3125 80.2812 25.1927 80.6093 26.0938C80.9427 26.9896 81.2291 27.9063 81.4739 28.8334C81.7135 29.7604 81.9114 30.6979 82.0573 31.6459C82.2083 32.5886 82.3125 33.5417 82.3698 34.5Z" fill="white"/>
</g>
</g>
</g>
</g>
<mask id="mask4_39_132" style="mask-type:luminance" maskUnits="userSpaceOnUse" x="0" y="0" width="106" height="74">
<path d="M0 0H105.333V73.3333H0V0Z" fill="white"/>
</mask>
<g mask="url(#mask4_39_132)">
<mask id="mask5_39_132" style="mask-type:luminance" maskUnits="userSpaceOnUse" x="0" y="-19" width="106" height="111">
<path d="M71.5209 -18.7812L105.245 11.1771L33.9115 91.4688L0.192749 61.5104L71.5209 -18.7812Z" fill="white"/>
</mask>
<g mask="url(#mask5_39_132)">
<mask id="mask6_39_132" style="mask-type:luminance" maskUnits="userSpaceOnUse" x="0" y="-19" width="106" height="111">
<path d="M71.5209 -18.7812L105.245 11.1771L33.9115 91.4688L0.192749 61.5104L71.5209 -18.7812Z" fill="white"/>
</mask>
<g mask="url(#mask6_39_132)">
<path d="M105.109 11.1146L12.2135 72.1771L0.203125 61.5104L93.099 0.447937L105.109 11.1146Z" fill="white"/>
</g>
</g>
</g>
<mask id="mask7_39_132" style="mask-type:luminance" maskUnits="userSpaceOnUse" x="2" y="0" width="102" height="75">
<path d="M2.66663 0H104V74.6667H2.66663V0Z" fill="white"/>
</mask>
<g mask="url(#mask7_39_132)">
<mask id="mask8_39_132" style="mask-type:luminance" maskUnits="userSpaceOnUse" x="-5" y="0" width="117" height="75">
<path d="M-4.64062 43.3021L8.33333 0.0989685L111.193 30.9844L98.224 74.1875L-4.64062 43.3021Z" fill="white"/>
</mask>
<g mask="url(#mask8_39_132)">
<mask id="mask9_39_132" style="mask-type:luminance" maskUnits="userSpaceOnUse" x="-5" y="0" width="117" height="75">
<path d="M-4.64062 43.3021L8.33333 0.0989685L111.193 30.9844L98.224 74.1875L-4.64062 43.3021Z" fill="white"/>
</mask>
<g mask="url(#mask9_39_132)">
<path d="M8.33329 0.244812L102.839 58.7917L98.2187 74.1771L3.7135 15.6354L8.33329 0.244812Z" fill="white"/>
</g>
</g>
</g>
<mask id="mask10_39_132" style="mask-type:luminance" maskUnits="userSpaceOnUse" x="33" y="28" width="14" height="20">
<path d="M33.3334 28H46.6667V48H33.3334V28Z" fill="white"/>
</mask>
<g mask="url(#mask10_39_132)">
<mask id="mask11_39_132" style="mask-type:luminance" maskUnits="userSpaceOnUse" x="32" y="22" width="42" height="31">
<path d="M32.9636 24.7188L72.099 22.4062L73.7136 49.7448L34.5782 52.0573L32.9636 24.7188Z" fill="white"/>
</mask>
<g mask="url(#mask11_39_132)">
<mask id="mask12_39_132" style="mask-type:luminance" maskUnits="userSpaceOnUse" x="32" y="22" width="42" height="31">
<path d="M32.9636 24.7188L72.099 22.4062L73.7136 49.7448L34.5782 52.0573L32.9636 24.7188Z" fill="white"/>
</mask>
<g mask="url(#mask12_39_132)">
<mask id="mask13_39_132" style="mask-type:luminance" maskUnits="userSpaceOnUse" x="32" y="22" width="42" height="31">
<path d="M32.9636 24.7188L72.099 22.4062L73.7136 49.7448L34.5782 52.0573L32.9636 24.7188Z" fill="white"/>
</mask>
<g mask="url(#mask13_39_132)">
<path d="M44.2709 47.6198C43.6928 47.6511 43.2969 47.4844 42.8907 47.1198L34.7188 39.875C33.9011 39.1511 33.8334 37.9948 34.5574 37.1823L41.8178 29.0261C42.5469 28.2084 43.7032 28.1406 44.5209 28.8646C45.3386 29.5886 45.4063 30.7448 44.6771 31.5573L38.6876 38.2917L45.4324 44.2656C46.2449 44.9896 46.3178 46.1459 45.5886 46.9636C45.224 47.3698 44.8542 47.5834 44.2709 47.6198Z" fill="black"/>
</g>
</g>
</g>
</g>
<mask id="mask14_39_132" style="mask-type:luminance" maskUnits="userSpaceOnUse" x="60" y="26" width="14" height="21">
<path d="M60 26.6667H73.3333V46.6667H60V26.6667Z" fill="white"/>
</mask>
<g mask="url(#mask14_39_132)">
<mask id="mask15_39_132" style="mask-type:luminance" maskUnits="userSpaceOnUse" x="32" y="22" width="42" height="31">
<path d="M32.9635 24.7188L72.0989 22.4062L73.7135 49.7448L34.5781 52.0573L32.9635 24.7188Z" fill="white"/>
</mask>
<g mask="url(#mask15_39_132)">
<mask id="mask16_39_132" style="mask-type:luminance" maskUnits="userSpaceOnUse" x="32" y="22" width="42" height="31">
<path d="M32.9635 24.7188L72.0989 22.4062L73.7135 49.7448L34.5781 52.0573L32.9635 24.7188Z" fill="white"/>
</mask>
<g mask="url(#mask16_39_132)">
<mask id="mask17_39_132" style="mask-type:luminance" maskUnits="userSpaceOnUse" x="32" y="22" width="42" height="31">
<path d="M32.9635 24.7188L72.0989 22.4062L73.7135 49.7448L34.5781 52.0573L32.9635 24.7188Z" fill="white"/>
</mask>
<g mask="url(#mask17_39_132)">
<path d="M63.5625 46.4792C62.9844 46.5156 62.5885 46.3438 62.1771 45.9844C61.3594 45.2552 61.2916 44.1042 62.0208 43.2865L68.0104 36.5573L61.2708 30.5781C60.4531 29.8542 60.3854 28.6979 61.1094 27.8854C61.8333 27.0677 62.9948 27 63.8125 27.724L71.9791 34.9688C72.7969 35.6927 72.8646 36.849 72.1406 37.6667L64.8802 45.8229C64.5156 46.2292 64.1406 46.4479 63.5625 46.4792Z" fill="black"/>
</g>
</g>
</g>
</g>
<mask id="mask18_39_132" style="mask-type:luminance" maskUnits="userSpaceOnUse" x="48" y="22" width="11" height="30">
<path d="M48 22.6667H58.6667V52H48V22.6667Z" fill="white"/>
</mask>
<g mask="url(#mask18_39_132)">
<mask id="mask19_39_132" style="mask-type:luminance" maskUnits="userSpaceOnUse" x="32" y="22" width="42" height="31">
<path d="M32.9635 24.7188L72.0989 22.4062L73.7135 49.7448L34.5781 52.0573L32.9635 24.7188Z" fill="white"/>
</mask>
<g mask="url(#mask19_39_132)">
<mask id="mask20_39_132" style="mask-type:luminance" maskUnits="userSpaceOnUse" x="32" y="22" width="42" height="31">
<path d="M32.9635 24.7188L72.0989 22.4062L73.7135 49.7448L34.5781 52.0573L32.9635 24.7188Z" fill="white"/>
</mask>
<g mask="url(#mask20_39_132)">
<mask id="mask21_39_132" style="mask-type:luminance" maskUnits="userSpaceOnUse" x="32" y="22" width="42" height="31">
<path d="M32.9635 24.7188L72.0989 22.4062L73.7135 49.7448L34.5781 52.0573L32.9635 24.7188Z" fill="white"/>
</mask>
<g mask="url(#mask21_39_132)">
<path d="M50.2864 51.1302C50.0937 51.1406 49.901 51.1511 49.6978 50.9688C48.7083 50.6406 48.0728 49.7136 48.3905 48.5365L54.7447 24.974C55.0728 23.9896 55.9999 23.3542 57.1822 23.6719C58.1718 24 58.8072 24.9271 58.4895 26.1094L52.1353 49.6667C51.7968 50.4583 51.0572 51.0833 50.2864 51.1302Z" fill="black"/>
</g>
</g>
</g>
</g>
<path d="M108.114 48.4755V18.8921H111.656L127.427 42.6005V18.8921H130.968V48.4755H127.427L111.656 24.7671V48.4755H108.114Z" fill="white"/>
<path d="M141.907 48.4755L152.803 18.8921H156.574L167.428 48.4755H163.657L160.949 40.8713H148.366L145.616 48.4755H141.907ZM149.428 37.9963H159.907L154.657 23.3713L149.428 37.9963Z" fill="white"/>
<path d="M187.77 48.9755C185.604 48.9755 183.713 48.5848 182.104 47.8088C180.505 47.0171 179.27 45.9234 178.395 44.5171C177.52 43.1005 177.083 41.465 177.083 39.6005H180.812C180.812 40.7567 181.072 41.8192 181.604 42.788C182.145 43.7619 182.927 44.538 183.958 45.1213C184.984 45.6942 186.255 45.9755 187.77 45.9755C189.77 45.9755 191.317 45.4963 192.416 44.538C193.51 43.5796 194.062 42.3869 194.062 40.9546C194.062 39.7775 193.802 38.8244 193.291 38.1005C192.791 37.3817 192.109 36.7984 191.25 36.3505C190.401 35.9077 189.421 35.5171 188.312 35.1838C187.197 34.84 186.031 34.4494 184.812 34.0171C182.531 33.2411 180.843 32.2671 179.75 31.1005C178.651 29.9234 178.104 28.3869 178.104 26.4963C178.072 24.9286 178.437 23.5327 179.187 22.3088C179.947 21.0744 181.026 20.1161 182.416 19.4338C183.817 18.7411 185.479 18.3921 187.395 18.3921C189.281 18.3921 190.921 18.7463 192.312 19.4546C193.713 20.1525 194.796 21.1213 195.562 22.3713C196.338 23.6109 196.739 25.0119 196.77 26.5796H193.062C193.062 25.7775 192.843 24.9702 192.416 24.163C192 23.3609 191.359 22.7046 190.5 22.2046C189.635 21.6942 188.562 21.4338 187.27 21.4338C185.656 21.4077 184.338 21.8192 183.312 22.663C182.281 23.5119 181.77 24.6786 181.77 26.163C181.77 27.4286 182.13 28.4025 182.854 29.0796C183.572 29.7619 184.583 30.3244 185.875 30.7671C187.166 31.1994 188.656 31.6942 190.354 32.2463C191.755 32.7619 193.02 33.3609 194.145 34.038C195.281 34.7046 196.166 35.5744 196.791 36.6421C197.427 37.715 197.75 39.0796 197.75 40.7463C197.75 42.1525 197.38 43.4859 196.645 44.7463C195.906 45.9963 194.802 47.0171 193.333 47.8088C191.859 48.5848 190.005 48.9755 187.77 48.9755Z" fill="white"/>
<path d="M227.055 48.4755V18.8921H237.451C239.534 18.8921 241.253 19.2255 242.618 19.8921C243.993 20.5588 245.014 21.465 245.68 22.6005C246.357 23.7411 246.701 25.0119 246.701 26.413C246.701 28.3296 246.185 29.84 245.159 30.9338C244.128 32.0327 242.899 32.7984 241.472 33.2255C242.566 33.4234 243.566 33.8609 244.472 34.538C245.373 35.2046 246.081 36.0484 246.597 37.0588C247.123 38.0744 247.389 39.1942 247.389 40.413C247.389 41.9025 247.019 43.2619 246.284 44.4963C245.545 45.7202 244.456 46.6942 243.014 47.413C241.581 48.1213 239.836 48.4755 237.784 48.4755H227.055ZM230.597 31.8296H237.201C239.086 31.8296 240.54 31.3869 241.555 30.4963C242.566 29.6109 243.076 28.3817 243.076 26.8088C243.076 25.3088 242.576 24.1109 241.576 23.2046C240.576 22.3036 239.076 21.8505 237.076 21.8505H230.597V31.8296ZM230.597 45.5171H237.409C239.435 45.5171 240.998 45.0484 242.097 44.1005C243.191 43.1577 243.743 41.84 243.743 40.1421C243.743 38.4911 243.165 37.163 242.014 36.163C240.857 35.163 239.295 34.663 237.326 34.663H230.597V45.5171Z" fill="white"/>
<path d="M259.029 48.4755V18.8921H268.57C270.888 18.8921 272.779 19.2775 274.237 20.038C275.706 20.8036 276.789 21.8505 277.487 23.1838C278.195 24.5067 278.55 25.965 278.55 27.5588C278.55 29.4234 278.05 31.1005 277.05 32.6005C276.05 34.09 274.492 35.1421 272.383 35.7671L278.841 48.4755H274.654L268.654 36.2671H262.57V48.4755H259.029ZM262.57 33.4755H268.32C270.597 33.4755 272.258 32.9286 273.3 31.8296C274.352 30.7359 274.883 29.3244 274.883 27.6005C274.883 25.8505 274.367 24.465 273.341 23.4338C272.31 22.4077 270.623 21.8921 268.279 21.8921H262.57V33.4755Z" fill="white"/>
<path d="M304.06 48.9755C301.154 48.9755 298.612 48.34 296.435 47.0588C294.252 45.7827 292.544 43.9911 291.31 41.6838C290.086 39.3661 289.476 36.6994 289.476 33.6838C289.476 30.6734 290.086 28.0171 291.31 25.7255C292.544 23.4338 294.252 21.6421 296.435 20.3505C298.612 19.0484 301.154 18.3921 304.06 18.3921C306.987 18.3921 309.544 19.0484 311.726 20.3505C313.904 21.6421 315.601 23.4338 316.81 25.7255C318.029 28.0171 318.643 30.6734 318.643 33.6838C318.643 36.6994 318.029 39.3661 316.81 41.6838C315.601 43.9911 313.904 45.7827 311.726 47.0588C309.544 48.34 306.987 48.9755 304.06 48.9755ZM304.06 45.8505C306.226 45.8505 308.127 45.3661 309.768 44.3921C311.419 43.4234 312.706 42.0327 313.622 40.2255C314.539 38.4077 314.997 36.2255 314.997 33.6838C314.997 31.1577 314.539 28.9911 313.622 27.1838C312.706 25.3817 311.419 23.9911 309.768 23.0171C308.127 22.0484 306.226 21.5588 304.06 21.5588C301.893 21.5588 299.982 22.0484 298.331 23.0171C296.69 23.9911 295.414 25.3817 294.497 27.1838C293.581 28.9911 293.122 31.1577 293.122 33.6838C293.122 36.2255 293.581 38.4077 294.497 40.2255C295.414 42.0327 296.69 43.4234 298.331 44.3921C299.982 45.3661 301.893 45.8505 304.06 45.8505Z" fill="white"/>
<path d="M336.365 48.5171L328.261 18.8921H332.053L338.428 44.288L345.699 18.8921H349.636L356.699 44.288L363.157 18.8921H366.949L358.678 48.4755H354.615L347.574 24.0588L340.345 48.4755L336.365 48.5171Z" fill="white"/>
<path d="M377.67 48.4755V18.8921H381.212L396.983 42.6005V18.8921H400.524V48.4755H396.983L381.212 24.7671V48.4755H377.67Z" fill="white"/>
</svg>
